<?xml version="1.0" standalone="no"?>
<!DOCTYPE svg PUBLIC "-//W3C//DTD SVG 20010904//EN"
 "http://www.w3.org/TR/2001/REC-SVG-20010904/DTD/svg10.dtd">
<svg version="1.0" xmlns="http://www.w3.org/2000/svg"
 width="1254.000000pt" height="1254.000000pt" viewBox="0 0 1254.000000 1254.000000"
 preserveAspectRatio="xMidYMid meet">

<g transform="translate(0.000000,1254.000000) scale(0.100000,-0.100000)"
fill="#000000" stroke="none">
<path d="M9975 10663 c-118 -5 -1032 -37 -2005 -68 -256 -8 -582 -19 -725 -25
-335 -13 -749 -27 -1145 -40 -173 -6 -499 -17 -725 -26 -225 -8 -520 -18 -655
-23 -259 -9 -281 -13 -325 -61 -20 -22 -20 -39 -23 -2912 -2 -2301 -5 -2889
-15 -2885 -228 98 -335 129 -507 147 -487 52 -1022 -164 -1311 -530 -352 -445
-380 -973 -75 -1381 362 -482 1076 -625 1658 -333 426 214 689 583 758 1065 8
51 11 768 10 2290 -1 1793 2 2218 12 2226 8 6 204 17 493 27 264 9 611 21 770
26 160 6 558 19 885 30 327 11 780 27 1005 36 1147 44 1661 60 1673 51 18 -14
18 -3262 0 -3254 -7 3 -50 22 -96 42 -97 43 -234 79 -359 96 -118 16 -369 5
-491 -21 -584 -124 -1037 -564 -1112 -1079 -17 -112 -7 -303 19 -406 102 -390
462 -706 911 -802 117 -24 389 -24 513 0 516 103 929 465 1076 942 65 211 60
-46 63 3529 l2 3256 -20 27 c-11 16 -36 36 -55 45 -33 18 -53 19 -204 11z
m-261 -954 l26 -20 0 -159 c0 -140 -2 -160 -19 -181 -22 -27 91 -21 -1111 -59
-360 -11 -934 -29 -1275 -40 -1469 -47 -2238 -70 -2332 -70 -112 0 -113 2
-113 200 0 214 -8 205 196 214 82 3 255 8 384 11 129 3 305 8 390 10 155 6
536 16 1260 35 212 5 500 14 640 20 140 5 579 19 975 30 717 20 847 24 916 28
24 1 45 -5 63 -19z"/>
</g>
</svg>
